# xmcd
# Copyright (C) 1995-1998 Ti Kan
#
# Track frame offsets:
#       150
#       16471
#       37204
#       53037
#       68720
#       86359
#       103974
#       122032
#       139279
#       155698
#       173001
#
# Disc length: 2577 seconds
#
# Revision: 0
# Processed by: cddbd v1.5.2PL0 Copyright (c) Steve Scherf et al.
# Submitted via: CD-Import v1.0
#
DISCID=970a0f0b
DTITLE=Jozarra - Double
DYEAR=10
DGENRE=
TTITLE0=Some People Pray
TTITLE1=Like I Told U
TTITLE2=Get Up
TTITLE3=When The Blade Comes Down
TTITLE4=Nonono
TTITLE5=Whole Wide World - Www Tupperware
TTITLE6=Jimmy, Jack and Betty
TTITLE7=Saturday
TTITLE8=I Know
TTITLE9=Misssing Code
TTITLE10=So Solid
EXTD=
EXTT0=
EXTT1=
EXTT2=
EXTT3=
EXTT4=
EXTT5=
EXTT6=
EXTT7=
EXTT8=
EXTT9=
EXTT10=
PLAYORDER=
